<svg xmlns="http://www.w3.org/2000/svg" viewBox="0 0 29.85 29.85"><defs><style>.cls-1{fill:none;stroke:#fff;stroke-miterlimit:10;stroke-width:1.53px;}.cls-2{fill:#fff;}</style></defs><title>Asset 1</title><g id="Layer_2" data-name="Layer 2"><g id="Capa_1" data-name="Capa 1"><circle class="cls-1" cx="14.92" cy="14.92" r="14.16"/><path class="cls-2" d="M10.36,23.28V21.93a10.08,10.08,0,0,0,4.89-3.24A7.37,7.37,0,0,0,17,14.05a1.66,1.66,0,0,0-.28-1,.57.57,0,0,0-.43-.27,4.49,4.49,0,0,0-1.47.61,2.6,2.6,0,0,1-1.16.27,3.23,3.23,0,0,1-2.39-.88,3.28,3.28,0,0,1-.89-2.45,3.41,3.41,0,0,1,1.15-2.58,4,4,0,0,1,2.8-1.07,4.74,4.74,0,0,1,3.6,1.76,6.75,6.75,0,0,1,1.58,4.67A9.13,9.13,0,0,1,17.3,19,14.48,14.48,0,0,1,10.36,23.28Z"/></g></g></svg>